<?xml version="1.0" encoding="iso-8859-1"?>
<!-- Generator: Adobe Illustrator 19.0.0, SVG Export Plug-In . SVG Version: 6.00 Build 0)  -->
<svg version="1.1" id="Capa_1" xmlns="http://www.w3.org/2000/svg" xmlns:xlink="http://www.w3.org/1999/xlink" x="0px" y="0px"
	 viewBox="0 0 512 512" style="enable-background:new 0 0 512 512;" xml:space="preserve">
<g>
	<g>
		<g>
			<path d="M500.456,412.616l-47.125-47.132l20.597-20.596c8.92-8.92,13.832-20.784,13.832-33.392
				c0-12.616-4.912-24.48-13.832-33.392c-8.912-8.92-20.776-13.832-33.392-13.832c-12.608,0-24.472,4.912-33.392,13.832
				l-20.593,20.593l-74.686-74.661L490.136,45.68c2.288-2.288,2.976-5.728,1.736-8.72c-1.24-2.992-4.16-4.936-7.392-4.936h-88.96
				c-2.12,0-4.152,0.84-5.656,2.344L255.983,168.172L122.136,34.368c-1.496-1.504-3.536-2.344-5.656-2.344H27.52
				c-3.232,0-6.152,1.944-7.392,4.936s-0.552,6.432,1.736,8.72l178.279,178.329l-74.688,74.688l-20.591-20.593
				c-8.92-8.92-20.784-13.832-33.392-13.832c-12.616,0-24.48,4.912-33.392,13.832c-8.92,8.912-13.832,20.776-13.832,33.392
				c0,12.608,4.912,24.472,13.832,33.392l20.591,20.593l-47.127,47.127C4.104,420.048,0,429.96,0,440.504
				c0,10.6,4.104,20.536,11.568,27.992c7.696,7.648,17.8,11.472,27.912,11.472c10.104,0,20.232-3.832,27.928-11.488l47.132-47.125
				l20.596,20.597c8.92,8.92,20.784,13.832,33.392,13.832c12.624,0,24.48-4.912,33.392-13.832
				c8.92-8.912,13.832-20.776,13.832-33.392c0-12.608-4.912-24.472-13.832-33.392l-20.591-20.593l74.682-74.682l74.662,74.682
				l-20.593,20.593c-8.92,8.92-13.832,20.784-13.832,33.392c0,12.616,4.912,24.48,13.832,33.392
				c8.912,8.92,20.776,13.832,33.392,13.832c12.608,0,24.464-4.912,33.384-13.832l20.597-20.596l47.147,47.14
				c7.696,7.648,17.8,11.48,27.912,11.48c10.112-0.008,20.232-3.84,27.944-11.488c7.44-7.448,11.544-17.384,11.544-27.984
				C512,429.96,507.896,420.048,500.456,412.616z M398.832,48.024h66.336l-164.62,164.698l-33.25-33.24L398.832,48.024z
				 M56.112,457.152c-9.168,9.112-24.096,9.12-33.256,0.008C18.44,452.744,16,446.832,16,440.504c0-6.272,2.44-12.16,6.856-16.576
				l47.127-47.134l33.246,33.248L56.112,457.152z M199.768,408.56c0,8.344-3.256,16.184-9.152,22.08
				c-11.8,11.792-32.36,11.808-44.16,0l-25.918-25.916c-0.106-0.12-0.208-0.242-0.322-0.356c-0.115-0.115-0.237-0.216-0.357-0.323
				l-43.846-43.843c-0.117-0.133-0.23-0.268-0.357-0.394c-0.127-0.127-0.262-0.24-0.395-0.357l-25.869-25.867
				c-5.904-5.904-9.152-13.744-9.152-22.08c0-8.344,3.248-16.176,9.152-22.08c5.904-5.904,13.736-9.152,22.08-9.152
				c8.336,0,16.176,3.248,22.072,9.144l25.993,25.991c0.083,0.091,0.159,0.185,0.247,0.273c0.088,0.088,0.182,0.164,0.273,0.246
				l43.931,43.927c0.117,0.133,0.23,0.268,0.357,0.394c0.127,0.127,0.261,0.24,0.394,0.356l25.878,25.876
				C196.52,392.384,199.768,400.224,199.768,408.56z M170.017,343.263l-33.251-33.253l74.687-74.687l33.247,33.257L170.017,343.263z
				 M46.832,48.024h66.336l262.071,261.985l-33.246,33.246L46.832,48.024z M365.552,430.64c-11.808,11.808-32.368,11.792-44.16,0
				c-5.904-5.904-9.152-13.736-9.152-22.08c0-8.336,3.256-16.184,9.152-22.08l25.938-25.938c0.112-0.1,0.227-0.195,0.334-0.302
				c0.107-0.107,0.202-0.222,0.302-0.333l43.925-43.925c0.112-0.1,0.226-0.194,0.333-0.301s0.201-0.222,0.301-0.333l25.923-25.923
				c5.904-5.904,13.744-9.152,22.08-9.152c8.344,0,16.184,3.24,22.088,9.144c5.904,5.904,9.152,13.736,9.152,22.08
				c0,8.336-3.256,16.184-9.152,22.08l-25.855,25.855c-0.141,0.123-0.283,0.243-0.417,0.377s-0.254,0.276-0.377,0.417l-43.69,43.69
				c-0.171,0.144-0.34,0.292-0.501,0.453s-0.308,0.33-0.453,0.501L365.552,430.64z M489.152,457.152
				c-9.168,9.112-24.096,9.112-33.256,0.016l-47.13-47.123l33.252-33.249l47.126,47.14c4.416,4.408,6.856,10.296,6.856,16.568
				C496,446.832,493.56,452.744,489.152,457.152z"/>
			<path d="M256,144.024c2.08,0,4.16-0.88,5.68-2.32c1.44-1.52,2.32-3.52,2.32-5.68c0-2.08-0.88-4.168-2.32-5.68
				c-2.96-2.96-8.4-2.96-11.36,0c-1.448,1.512-2.32,3.6-2.32,5.68c0,2.08,0.872,4.16,2.32,5.68
				C251.832,143.144,253.92,144.024,256,144.024z"/>
			<path d="M256,112.024c2.08,0,4.16-0.88,5.68-2.32c1.44-1.52,2.32-3.52,2.32-5.68c0-2.08-0.88-4.168-2.32-5.68
				c-2.96-2.96-8.4-2.96-11.36,0c-1.448,1.512-2.32,3.6-2.32,5.68c0,2.16,0.872,4.16,2.32,5.68
				C251.832,111.144,253.92,112.024,256,112.024z"/>
			<path d="M256,80.024c2.08,0,4.16-0.88,5.68-2.32c1.44-1.52,2.32-3.6,2.32-5.68c0-2.16-0.88-4.16-2.32-5.68
				c-2.96-2.96-8.4-2.96-11.36,0c-1.448,1.512-2.32,3.6-2.32,5.68c0,2.08,0.872,4.16,2.32,5.68
				C251.832,79.144,253.92,80.024,256,80.024z"/>
			<path d="M250.32,370.344c-1.448,1.512-2.32,3.6-2.32,5.68c0,2.08,0.872,4.16,2.32,5.68c1.512,1.44,3.6,2.32,5.68,2.32
				s4.16-0.88,5.68-2.32c1.44-1.52,2.32-3.52,2.32-5.68c0-2.08-0.88-4.168-2.32-5.68C258.72,367.384,253.28,367.384,250.32,370.344z
				"/>
			<path d="M250.32,338.344c-1.448,1.512-2.32,3.6-2.32,5.68c0,2.08,0.872,4.16,2.32,5.68c1.512,1.44,3.6,2.32,5.68,2.32
				s4.16-0.88,5.68-2.32c1.44-1.52,2.32-3.6,2.32-5.68c0-2.08-0.88-4.168-2.32-5.68C258.72,335.384,253.28,335.384,250.32,338.344z"
				/>
			<path d="M250.32,306.344c-1.448,1.512-2.32,3.512-2.32,5.68c0,2.08,0.872,4.16,2.32,5.68c1.512,1.44,3.6,2.32,5.68,2.32
				s4.16-0.88,5.68-2.32c1.44-1.52,2.32-3.6,2.32-5.68c0-2.168-0.88-4.168-2.32-5.68C258.72,303.384,253.28,303.464,250.32,306.344z
				"/>
			<path d="M338.32,218.344c-1.448,1.512-2.32,3.6-2.32,5.68c0,2.08,0.872,4.16,2.32,5.68c1.512,1.44,3.6,2.32,5.68,2.32
				c2.08,0,4.16-0.88,5.68-2.32c1.44-1.52,2.32-3.6,2.32-5.68c0-2.08-0.88-4.168-2.32-5.68
				C346.72,215.384,341.28,215.384,338.32,218.344z"/>
			<path d="M370.32,218.344c-1.448,1.512-2.32,3.512-2.32,5.68c0,2.16,0.872,4.16,2.32,5.68c1.512,1.44,3.6,2.32,5.68,2.32
				c2.08,0,4.16-0.88,5.68-2.32c1.44-1.52,2.32-3.6,2.32-5.68c0-2.08-0.88-4.168-2.32-5.68
				C378.72,215.384,373.28,215.384,370.32,218.344z"/>
			<path d="M402.32,218.344c-1.448,1.512-2.32,3.512-2.32,5.68c0,2.16,0.872,4.16,2.32,5.68c1.512,1.44,3.6,2.32,5.68,2.32
				c2.08,0,4.16-0.88,5.68-2.32c1.44-1.52,2.32-3.6,2.32-5.68c0-2.08-0.88-4.168-2.32-5.68
				C410.72,215.384,405.28,215.384,402.32,218.344z"/>
			<path d="M109.68,229.704c1.44-1.52,2.32-3.6,2.32-5.68c0-2.08-0.88-4.168-2.32-5.68c-2.96-2.96-8.4-2.96-11.28,0
				c-1.528,1.44-2.4,3.512-2.4,5.68c0,2.152,0.872,4.152,2.32,5.6c1.512,1.52,3.512,2.4,5.68,2.4
				C106.16,232.024,108.16,231.144,109.68,229.704z"/>
			<path d="M141.68,229.704c1.44-1.52,2.32-3.6,2.32-5.68c0-2.08-0.88-4.168-2.32-5.68c-2.96-2.96-8.4-2.96-11.36,0
				c-1.448,1.512-2.32,3.512-2.32,5.68c0,2.16,0.872,4.16,2.32,5.68c1.512,1.44,3.6,2.32,5.68,2.32S140.16,231.144,141.68,229.704z"
				/>
			<path d="M173.68,229.704c1.44-1.52,2.32-3.6,2.32-5.68c0-2.08-0.88-4.168-2.32-5.68c-3.04-2.96-8.4-2.96-11.36,0
				c-1.448,1.512-2.32,3.6-2.32,5.68c0,2.08,0.872,4.16,2.32,5.68c1.512,1.44,3.512,2.32,5.68,2.32
				C170.16,232.024,172.16,231.144,173.68,229.704z"/>
		</g>
	</g>
</g>
<g>
</g>
<g>
</g>
<g>
</g>
<g>
</g>
<g>
</g>
<g>
</g>
<g>
</g>
<g>
</g>
<g>
</g>
<g>
</g>
<g>
</g>
<g>
</g>
<g>
</g>
<g>
</g>
<g>
</g>
</svg>
