<svg id="Icons" height="512" viewBox="0 0 74 74" width="512" xmlns="http://www.w3.org/2000/svg"><path d="m37 48a11 11 0 1 1 11-11 11 11 0 0 1 -11 11zm0-20a9 9 0 1 0 9 9 9 9 0 0 0 -9-9z"/><path d="m59 72h-44a3 3 0 0 1 -3-3v-64a3 3 0 0 1 3-3h44a3 3 0 0 1 3 3v64a3 3 0 0 1 -3 3zm-44-68a1 1 0 0 0 -1 1v64a1 1 0 0 0 1 1h44a1 1 0 0 0 1-1v-64a1 1 0 0 0 -1-1z"/><path d="m61 38h-48a1 1 0 0 1 0-2h48a1 1 0 0 1 0 2z"/><path d="m50 12h-26a1 1 0 0 1 -1-1v-8a1 1 0 0 1 1-1h26a1 1 0 0 1 1 1v8a1 1 0 0 1 -1 1zm-25-2h24v-6h-24z"/><path d="m37 18a9 9 0 0 1 -8.72-6.75 1 1 0 1 1 1.94-.5 7 7 0 0 0 13.56 0 1 1 0 0 1 1.94.5 9 9 0 0 1 -8.72 6.75z"/><path d="m50 72h-26a1 1 0 0 1 -1-1v-8a1 1 0 0 1 1-1h26a1 1 0 0 1 1 1v8a1 1 0 0 1 -1 1zm-25-2h24v-6h-24z"/><path d="m44.75 64a1 1 0 0 1 -1-.75 7 7 0 0 0 -13.56 0 1 1 0 1 1 -1.94-.5 9 9 0 0 1 17.44 0 1 1 0 0 1 -.69 1.25 1.07 1.07 0 0 1 -.25 0z"/></svg>