<svg fill="none" height="512" viewBox="0 0 24 24" width="512" xmlns="http://www.w3.org/2000/svg"><g fill="rgb(0,0,0)"><path d="m9.5 17.5c-.27614 0-.5.2239-.5.5s.22386.5.5.5h5c.2761 0 .5-.2239.5-.5s-.2239-.5-.5-.5z"/><path clip-rule="evenodd" d="m14.1688 2.57514c-1.2716-1.00388-3.066-1.00388-4.33756 0l-6.5 5.13158c-.84073.66374-1.33124 1.67592-1.33124 2.74708v8.0462c0 1.933 1.567 3.5 3.5 3.5h13c1.933 0 3.5-1.567 3.5-3.5v-8.0462c0-1.07116-.4905-2.08334-1.3312-2.74708zm-3.7179.78488c.9083-.71706 2.1899-.71706 3.0982 0l6.5 5.13158c.6005.4741.9509 1.19709.9509 1.9622v8.0462c0 1.3807-1.1193 2.5-2.5 2.5h-13c-1.38071 0-2.5-1.1193-2.5-2.5v-8.0462c0-.76511.35036-1.4881.95089-1.9622z" fill-rule="evenodd"/></g></svg>