<svg viewBox="0 0 64 64" xmlns="http://www.w3.org/2000/svg"><g id="Duotone"><path d="m32 60a7.94 7.94 0 0 1 -3.81-1l-14.38-7.72a13 13 0 0 1 -6.81-11.43v-24.85a5 5 0 0 1 5-5h4a11 11 0 0 0 5.22-1.31l7-3.78a8 8 0 0 1 7.58 0l7 3.78a11 11 0 0 0 5.2 1.31h4a5 5 0 0 1 5 5v24.85a13 13 0 0 1 -6.81 11.43l-14.38 7.79a7.94 7.94 0 0 1 -3.81.93zm-20-48a3 3 0 0 0 -3 3v24.85a11 11 0 0 0 5.76 9.67l14.38 7.79a6 6 0 0 0 5.72 0l14.38-7.79a11 11 0 0 0 5.76-9.67v-24.85a3 3 0 0 0 -3-3h-4a13.13 13.13 0 0 1 -6.17-1.55l-7-3.78a6 6 0 0 0 -5.68 0l-7 3.78a13.13 13.13 0 0 1 -6.15 1.55z" fill="#ffbd98"/><g fill="#26204e"><path d="m27.17 41.49a3 3 0 0 1 -2.12-.88l-5.66-5.61a3 3 0 1 1 4.25-4.24l5.65 5.65a3 3 0 0 1 -2.12 5.13zm-5.66-9.66a1 1 0 0 0 -.7 1.71l5.65 5.65a1 1 0 0 0 1.41 0 1 1 0 0 0 0-1.41l-5.66-5.66a1 1 0 0 0 -.7-.29z"/><path d="m19.39 44.61a4 4 0 0 1 -2.82-1.17 4 4 0 0 1 0-5.66l3.53-3.54a1 1 0 0 1 1.41 0l4.25 4.25a1 1 0 0 1 0 1.41l-3.54 3.54a4 4 0 0 1 -2.83 1.17zm1.42-8.25-2.81 2.83a2 2 0 0 0 0 2.81 2 2 0 0 0 2.83 0l2.83-2.83z"/><path d="m37.44 29.55a1 1 0 0 1 -.63-1.77l5.58-4.57-.56-5-5-.57-4 4.91a1 1 0 1 1 -1.54-1.26l4.36-5.33a1 1 0 0 1 .88-.36l6.37.71a1 1 0 0 1 .88.88l.71 6.37a1 1 0 0 1 -.36.88l-6 4.91a.94.94 0 0 1 -.69.2z"/><path d="m27.88 37.36a1 1 0 0 1 -.71-.29l-4.24-4.24a1 1 0 0 1 -.06-1.34l2.92-3.57a1 1 0 1 1 1.54 1.26l-2.33 2.87 3 3 3.42-2.79a1 1 0 0 1 1.26 1.54l-4.12 3.37a.94.94 0 0 1 -.68.19z"/><path d="m36.83 41.49a3 3 0 0 1 -2.12-5.13l5.65-5.65a3 3 0 1 1 4.25 4.29l-5.61 5.61a3 3 0 0 1 -2.17.88zm5.66-9.66a1 1 0 0 0 -.71.29l-5.66 5.66a1 1 0 0 0 0 1.41 1 1 0 0 0 1.41 0l5.66-5.65a1 1 0 0 0 -.7-1.71z"/><path d="m44.61 44.61a4 4 0 0 1 -2.83-1.17l-3.54-3.54a1 1 0 0 1 0-1.41l4.25-4.25a1 1 0 0 1 1.41 0l3.53 3.54a4 4 0 0 1 0 5.66 4 4 0 0 1 -2.82 1.17zm-4.25-5.42 2.83 2.81a2 2 0 0 0 2.81 0 2 2 0 0 0 0-2.83l-2.83-2.83z"/><path d="m36.12 37.36a1 1 0 0 1 -.63-.22l-15.56-12.73a1 1 0 0 1 -.36-.88l.71-6.37a1 1 0 0 1 .88-.88l6.37-.71a1 1 0 0 1 .88.36l12.73 15.56a1 1 0 0 1 -.07 1.34l-4.24 4.24a1 1 0 0 1 -.71.29zm-14.5-14.15 14.43 11.79 3-3-11.84-14.38-5 .56z"/></g></g></svg>